<?xml version="1.0" encoding="utf-8"?>
<!-- Generator: Adobe Illustrator 25.2.1, SVG Export Plug-In . SVG Version: 6.00 Build 0)  -->
<svg version="1.1" id="Layer_1" xmlns="http://www.w3.org/2000/svg" xmlns:xlink="http://www.w3.org/1999/xlink" x="0px" y="0px"
	 viewBox="0 0 281.1 135.9" style="enable-background:new 0 0 281.1 135.9;" xml:space="preserve">
<style type="text/css">
	.st0{fill:#005B66;}
</style>
<g>
	<path class="st0" d="M6.2,26.9v32L6.4,59c2.6-3.5,5.9-5.5,10.5-5.5c10.1,0,12.5,7.3,12.5,15.9v21.8h-6.2V70.6
		c0-5.9-0.5-11.2-7.7-11.2c-8.6,0-9.1,8-9.1,14.5v17.4H0V26.9H6.2z"/>
	<path class="st0" d="M35.1,54.6h7.3l12.9,26.3l11.9-26.3h7.1l-27.1,57.3h-7.1l11.9-24L35.1,54.6z"/>
	<path class="st0" d="M95.2,59.3c7.7,0,12.3,5.9,12.3,13.3c0,7.4-4.2,13.9-12.2,13.9c-7.8,0-12-6.8-12-14
		C83.3,65.7,88,59.3,95.2,59.3z M107.2,91.2h6.2V26.9h-6.2v32.9h-0.2c-3-3.9-7.6-6.2-12.6-6.2c-11,0-17.6,9-17.6,19.4
		c0,10.1,6.8,19.3,17.5,19.3c5,0,9.6-2.1,12.6-6.1h0.2V91.2z"/>
	<path class="st0" d="M131,58.6h0.2c2.2-2.9,4.1-5,8.1-5c2.1,0,3.8,0.7,5.6,1.7l-3,5.7c-1.2-0.9-2.1-1.6-3.7-1.6
		c-6.9,0-7.2,8.8-7.2,13.6v18.3h-6.2V54.6h6.2V58.6z"/>
	<path class="st0" d="M167.1,59.3c7.7,0,13,6.2,13,13.6c0,7.5-5.3,13.6-13,13.6c-7.7,0-13-6.1-13-13.6
		C154.1,65.5,159.4,59.3,167.1,59.3z M167.1,92.3c10.7,0,19.3-8.5,19.3-19.3c0-10.8-8.5-19.4-19.3-19.4c-10.8,0-19.3,8.7-19.3,19.4
		C147.9,83.8,156.5,92.3,167.1,92.3z"/>
	<g>
		<path class="st0" d="M256.8,8.3c1.4-0.9,3.6-1.7,5-1.3c-4.7-4.5-11-8.3-17.2-4.5L216,21.8c-1.4,0.9-3.6,1.7-5,1.3
			c4.7,4.5,11,8.3,17.2,4.5L256.8,8.3z"/>
		<path class="st0" d="M276.1,27.4c1.4-0.9,3.6-1.7,5-1.3c-4.7-4.5-11-8.3-17.2-4.5l-28.7,19.3c-1.4,0.9-3.6,1.7-5,1.3
			c4.7,4.5,11,8.3,17.2,4.5L276.1,27.4z"/>
	</g>
	<path class="st0" d="M266.3,35.9c1,9.1-1.6,18.2-8.1,24.7c-12.3,12.3-33.5,10.9-47.5-3.1c-14-14-15.4-35.2-3.1-47.5
		c6.5-6.5,15.5-9.2,24.7-8.1c-12.9-3.9-26.2-1.8-34.9,6.9c-13.8,13.8-11.2,38.9,6,56.1c17.1,17.1,42.2,19.8,56.1,6
		C268.2,62.1,270.3,48.8,266.3,35.9z"/>
	<path class="st0" d="M167.2,104.8c5.6,0,9,5.5,9,10.8c0,5.1-3.4,10.7-9,10.7c-5.6,0-9-5.5-9-10.7
		C158.1,110.2,161.6,104.8,167.2,104.8z M167.2,95.1c-11.9,0-20.1,8.5-20.1,20.4c0,11.9,8.1,20.4,20.1,20.4c12,0,20.1-8.5,20.1-20.4
		C187.3,103.6,179.1,95.1,167.2,95.1z"/>
	<path class="st0" d="M203.4,99.9h0.2c2.3-3.4,6.1-4.8,10-4.8c10.3,0,13.3,7.3,13.3,16.1v23.4h-10.9v-20.3c0-4.6,0.2-10.5-5.9-10.5
		c-6.5,0-6.6,7.3-6.6,11.9v19h-10.9V96.3h10.9V99.9z"/>
	<path class="st0" d="M243.7,110.5c0.5-4,3-7.7,7.3-7.7c4.2,0,6.7,3.8,7.3,7.7H243.7z M268.6,117.3v-1.3c0-11.5-5.6-20.8-18.2-20.8
		c-12.4,0-18.6,9.1-18.6,20.7c0,11.6,7.3,20,19.1,20c8,0,14.7-4.3,17.4-11.9l-10.1-1.6c-1.5,3-3.7,5.2-7.3,5.2
		c-5.7,0-7.6-5.5-7.6-10.3H268.6z"/>
</g>
</svg>
