<?xml version="1.0" encoding="utf-8"?>
<!-- Generator: Adobe Illustrator 25.2.1, SVG Export Plug-In . SVG Version: 6.00 Build 0)  -->
<svg version="1.1" id="Layer_1" xmlns="http://www.w3.org/2000/svg" xmlns:xlink="http://www.w3.org/1999/xlink" x="0px" y="0px"
	 viewBox="0 0 16.6 16.5" style="enable-background:new 0 0 16.6 16.5;" xml:space="preserve">
<style type="text/css">
	.st0{fill:#005b66;}
</style>
<path class="st0" d="M15.6,0H0.9C0.4,0,0,0.4,0,0.9v14.7c0,0.5,0.4,0.9,0.9,0.9h7.9v-6.4H6.7V7.6h2.1V5.8c0-2.1,1.3-3.3,3.2-3.3
	c0.9,0,1.7,0.1,1.9,0.1v2.2h-1.3c-1,0-1.2,0.5-1.2,1.2v1.6h2.5l-0.3,2.5h-2.1v6.4h4.2c0.5,0,0.9-0.4,0.9-0.9V0.9
	C16.5,0.4,16.1,0,15.6,0"/>
</svg>
