<?xml version="1.0" encoding="utf-8"?>
<!-- Generator: Adobe Illustrator 25.2.1, SVG Export Plug-In . SVG Version: 6.00 Build 0)  -->
<svg version="1.1" id="Layer_1" xmlns="http://www.w3.org/2000/svg" xmlns:xlink="http://www.w3.org/1999/xlink" x="0px" y="0px"
	 viewBox="0 0 16.7 16.7" style="enable-background:new 0 0 16.7 16.7;" xml:space="preserve">
<style type="text/css">
	.st0{fill:#005b66;}
</style>
<g>
	<path class="st0" d="M8.4,0.1c-2.3,0-2.6,0-3.4,0c-0.9,0-1.5,0.2-2,0.4S2,1,1.5,1.5S0.8,2.4,0.5,3C0.3,3.5,0.2,4.1,0.1,5
		c0,0.8,0,1.1,0,3.4c0,2.2,0,2.5,0,3.4c0,0.9,0.2,1.5,0.4,2s0.5,1,1,1.5s0.9,0.7,1.5,1c0.5,0.2,1.1,0.3,2,0.4c0.9,0,1.2,0,3.4,0
		s2.5,0,3.4,0c0.9,0,1.5-0.2,2-0.4c0.5-0.2,1-0.5,1.5-1s0.7-0.9,1-1.5c0.2-0.5,0.3-1.1,0.4-2c0-0.9,0-1.2,0-3.4s0-2.5,0-3.4
		s-0.2-1.5-0.4-2c-0.2-0.5-0.5-1-1-1.5s-0.9-0.7-1.5-1c-0.5-0.2-1.1-0.3-2-0.4C10.9,0.1,10.6,0.1,8.4,0.1 M8.4,1.6
		c2.2,0,2.5,0,3.3,0s1.2,0.2,1.5,0.3c0.4,0.1,0.7,0.3,1,0.6s0.5,0.6,0.6,1c0.1,0.3,0.3,0.7,0.3,1.5c0,0.9,0,1.1,0,3.3s0,2.5,0,3.3
		s-0.2,1.2-0.3,1.5c-0.2,0.4-0.3,0.7-0.6,1s-0.6,0.5-1,0.6c-0.3,0.1-0.7,0.2-1.5,0.3c-0.9,0-1.1,0-3.3,0s-2.5,0-3.3,0
		s-1.2-0.2-1.5-0.3c-0.4-0.1-0.7-0.3-1-0.6s-0.5-0.6-0.6-1c-0.1-0.3-0.2-0.7-0.3-1.5c0-0.9,0-1.1,0-3.3s0-2.5,0-3.3S1.9,3.8,2,3.5
		c0.1-0.4,0.3-0.7,0.5-1c0.3-0.2,0.6-0.4,1-0.6C3.8,1.8,4.2,1.7,5,1.6C5.9,1.6,6.2,1.6,8.4,1.6"/>
	<path class="st0" d="M8.4,11.1c-1.5,0-2.8-1.2-2.8-2.8s1.2-2.8,2.8-2.8s2.7,1.3,2.7,2.9S9.9,11.1,8.4,11.1 M8.4,4.1
		C6,4.1,4.1,6,4.1,8.4c0,2.3,1.9,4.2,4.2,4.2s4.2-1.9,4.2-4.2C12.6,6,10.7,4.1,8.4,4.1"/>
	<path class="st0" d="M13.8,4c0,0.5-0.4,1-1,1s-1-0.4-1-1c0-0.5,0.4-1,1-1S13.8,3.4,13.8,4"/>
</g>
</svg>
