<?xml version="1.0" encoding="utf-8"?>
<!-- Generator: Adobe Illustrator 25.2.1, SVG Export Plug-In . SVG Version: 6.00 Build 0)  -->
<svg version="1.1" id="Layer_1" xmlns="http://www.w3.org/2000/svg" xmlns:xlink="http://www.w3.org/1999/xlink" x="0px" y="0px"
	 viewBox="0 0 16.6 16.6" style="enable-background:new 0 0 16.6 16.6;" xml:space="preserve">
<style type="text/css">
	.st0{fill:#005b66;}
</style>
<g>
	<g>
		<g>
			<path class="st0" d="M15.4,0H1.2C0.5,0,0,0.5,0,1.2v14.2c0,0.7,0.5,1.2,1.2,1.2h14.2c0.7,0,1.2-0.5,1.2-1.2V1.2
				C16.6,0.5,16.1,0,15.4,0z M4.9,14.2H2.5V6.2h2.5V14.2z M3.7,5.1c-0.8,0-1.4-0.6-1.4-1.4c0-0.8,0.6-1.4,1.4-1.4
				c0.8,0,1.4,0.6,1.4,1.4C5.1,4.5,4.5,5.1,3.7,5.1z M14.2,14.2h-2.5v-3.9c0-0.9,0-2.1-1.3-2.1c-1.3,0-1.5,1-1.5,2v3.9H6.5V6.2h2.4
				v1.1h0C9.2,6.7,10,6,11.2,6c2.5,0,3,1.6,3,3.8V14.2z"/>
		</g>
	</g>
</g>
</svg>
