<?xml version="1.0" encoding="utf-8"?>
<!-- Generator: Adobe Illustrator 25.2.1, SVG Export Plug-In . SVG Version: 6.00 Build 0)  -->
<svg version="1.1" id="Layer_1" xmlns="http://www.w3.org/2000/svg" xmlns:xlink="http://www.w3.org/1999/xlink" x="0px" y="0px"
	 viewBox="0 0 20.3 16.5" style="enable-background:new 0 0 20.3 16.5;" xml:space="preserve">
<style type="text/css">
	.st0{fill:#005b66;}
</style>
<path class="st0" d="M20.3,1.9c-0.7,0.3-1.5,0.6-2.4,0.7c0.9-0.5,1.5-1.3,1.8-2.3c-0.8,0.5-1.7,0.8-2.6,1C16.3,0.5,15.2,0,14,0
	c-2.3,0-4.2,1.9-4.2,4.2c0,0.3,0,0.6,0.1,0.9C6.5,4.9,3.5,3.3,1.4,0.8C1.1,1.4,0.8,2.1,0.8,2.9c0,1.4,0.7,2.7,1.9,3.5
	C2,6.3,1.4,6.1,0.8,5.8v0.1c0,2,1.4,3.7,3.3,4.1c-0.4,0.1-0.7,0.1-1.1,0.1c-0.3,0-0.5,0-0.8-0.1c0.5,1.7,2.1,2.9,3.9,2.9
	C4.7,14,2.9,14.7,1,14.7c-0.3,0-0.7,0-1-0.1c1.8,1.2,4,1.9,6.4,1.9c7.6,0,11.8-6.3,11.8-11.8c0-0.2,0-0.4,0-0.5
	C19,3.5,19.7,2.8,20.3,1.9"/>
</svg>
