<?xml version="1.0" encoding="utf-8"?>
<!-- Generator: Adobe Illustrator 25.2.1, SVG Export Plug-In . SVG Version: 6.00 Build 0)  -->
<svg version="1.1" id="Layer_1" xmlns="http://www.w3.org/2000/svg" xmlns:xlink="http://www.w3.org/1999/xlink" x="0px" y="0px"
	 viewBox="0 0 23.8 16.6" style="enable-background:new 0 0 23.8 16.6;" xml:space="preserve">
<style type="text/css">
	.st0{fill:#005b66;}
</style>
<path class="st0" d="M23.3,2.6c-0.3-1-1.1-1.8-2.1-2.1C19.3,0,11.9,0,11.9,0S4.5,0,2.6,0.5c-1,0.3-1.8,1.1-2.1,2.1
	C0,4.5,0,8.3,0,8.3s0,3.9,0.5,5.7c0.3,1,1.1,1.8,2.1,2.1c1.9,0.5,9.3,0.5,9.3,0.5s7.4,0,9.3-0.5c1-0.3,1.8-1.1,2.1-2.1
	c0.5-1.9,0.5-5.7,0.5-5.7S23.8,4.5,23.3,2.6z M9.5,11.9V4.8l6.2,3.6L9.5,11.9z"/>
</svg>
